<?xml version="1.0" encoding="UTF-8"?>
<svg id="Layer_1" xmlns="http://www.w3.org/2000/svg" viewBox="0 48 256 160">
  <defs>
    <style>
      .cls-1 {
        fill: #09bc8a;
      }
    </style>
  </defs>
  <path class="cls-1" d="M83.33,170h-27.64c-3.67-5.38-6.71-9.68-9.11-12.9s-4.36-5.65-5.87-7.28c-1.51-1.63-2.63-2.61-3.36-2.94-.73-.32-1.24-.28-1.53.13-.29.41-.43,1.02-.43,1.83v21.15H9.72v-88.66h33.63c3.91,0,7.77.94,11.56,2.81,3.79,1.88,7.07,4.24,9.84,7.09,3.26,3.26,5.69,6.97,7.28,11.13,1.59,4.16,2.34,8.4,2.26,12.72-.08,4.32-1,8.58-2.75,12.78-1.75,4.2-4.26,7.97-7.52,11.31l19.32,30.81ZM49.46,114c0-2.36-.82-4.36-2.45-5.99-1.63-1.63-3.63-2.45-5.99-2.45h-5.87v17h5.87c2.36,0,4.36-.83,5.99-2.51,1.63-1.67,2.45-3.69,2.45-6.05Z"/>
  <path class="cls-1" d="M119.77,81.59c4.81.82,9.19,2.47,13.15,4.95,3.95,2.49,7.26,5.56,9.91,9.23,2.65,3.67,4.56,7.75,5.74,12.23,1.18,4.49,1.41,9.13.67,13.94-.73,5.06-2.4,9.6-5,13.64-2.6,4.04-5.85,7.4-9.75,10.09.89.98,2.01,2.06,3.35,3.24,1.34,1.18,3.15,2.26,5.43,3.24,2.11.9,4.37,1,6.77.31,2.4-.69,8.05-5.45,9.84-7.16l17.75,18.09c-1.96,1.96-7.36,6.85-9.56,8.03-2.2,1.18-4.46,2.1-6.79,2.75s-4.67,1.08-7.03,1.29c-2.37.2-4.69.31-6.96.31-3.09,0-6.02-.33-8.78-.98-2.76-.65-5.16-1.55-7.19-2.69-2.93-1.71-5.49-3.49-7.68-5.32s-4.13-3.65-5.79-5.44-3.19-3.55-4.57-5.26-2.72-3.26-4.02-4.65v18.59h-25.68v-88.66h30.88c2.16,0,3.93.08,5.32.24ZM123.57,116.57c0-2.36-.81-4.36-2.42-5.99-1.62-1.63-3.6-2.45-5.94-2.45h-5.94v17h5.94c2.35,0,4.33-.83,5.94-2.51,1.62-1.67,2.42-3.69,2.42-6.05ZM200.48,79.14c6.36,0,12.33,1.2,17.92,3.61,5.58,2.41,10.46,5.69,14.61,9.84,4.16,4.16,7.44,9.03,9.84,14.61,2.41,5.59,3.61,11.56,3.61,17.92s-1.2,12.33-3.61,17.92c-2.41,5.58-5.69,10.46-9.84,14.61s-9.03,7.44-14.61,9.84c-5.59,2.41-11.56,3.61-17.92,3.61s-12.33-1.2-17.92-3.61c-5.58-2.4-10.46-5.69-14.61-9.84s-7.44-9.03-9.84-14.61c-2.41-5.58-3.61-11.56-3.61-17.92s1.2-12.33,3.61-17.92c2.4-5.58,5.69-10.46,9.84-14.61,4.16-4.16,9.03-7.44,14.61-9.84,5.58-2.4,11.56-3.61,17.92-3.61ZM220.78,125c0-2.69-.51-5.22-1.53-7.58-1.02-2.36-2.38-4.4-4.1-6.12s-3.75-3.08-6.12-4.1c-2.37-1.02-4.89-1.53-7.58-1.53s-5.22.51-7.58,1.53c-2.36,1.02-4.42,2.38-6.17,4.1-1.76,1.71-3.14,3.75-4.16,6.12-1.02,2.37-1.53,4.89-1.53,7.58s.51,5.22,1.53,7.58c1.02,2.37,2.4,4.42,4.16,6.17,1.75,1.75,3.81,3.14,6.17,4.16s4.89,1.53,7.58,1.53,5.22-.51,7.58-1.53c2.36-1.02,4.4-2.41,6.12-4.16s3.07-3.81,4.1-6.17c1.02-2.37,1.53-4.89,1.53-7.58Z"/>
</svg>