<?xml version="1.0" encoding="UTF-8"?>
<svg xmlns="http://www.w3.org/2000/svg" version="1.1" viewBox="0 0 256 128">
  <defs>
    <style>
      .cls-1 {
        fill: #09bc8a;
      }

      .cls-2 {
        fill: #fff;
      }
    </style>
  </defs>
  <!-- Generator: Adobe Illustrator 28.7.1, SVG Export Plug-In . SVG Version: 1.2.0 Build 142)  -->
  <g>
    <g id="Layer_1">
      <g id="Layer_1-2" data-name="Layer_1">
        <path class="cls-2" d="M246.5,42.1c-2.6-6-6.2-11.4-10.7-15.9s-9.8-8.1-15.9-10.7c-6.1-2.6-12.6-3.9-19.5-3.9s-13.4,1.3-19.5,3.9c-6,2.6-11.4,6.2-15.9,10.7s-8.1,9.8-10.7,15.9c-.5,1.2-1,2.5-1.4,3.8-.2-.8-.3-1.6-.6-2.4-1.3-5-3.4-9.5-6.4-13.6-2.9-4.1-6.6-7.5-11-10.3-4.4-2.7-9.3-4.6-14.6-5.5h-.5c-1.5-.2-3.3-.2-5.5-.2h-30.9c-2.2,0-4,1.8-4,4v75.1l-10.6-16.8c2.6-3.1,4.7-6.5,6.2-10.2,1.9-4.7,3-9.4,3.1-14.2,0-4.8-.8-9.6-2.5-14.2-1.8-4.7-4.5-8.9-8.1-12.5-3.1-3.2-6.7-5.8-10.9-7.9-4.3-2.1-8.8-3.2-13.3-3.2H9.7c-2.2,0-4,1.8-4,4v88.7c0,2.2,1.8,4,4,4h25.7c2.2,0,4-1.8,4-4v-15.6c1.1,1.4,2.5,3.1,4,5.1,2.4,3.2,5.4,7.5,9,12.8.7,1.1,2,1.7,3.3,1.7h53.5c2.2,0,4-1.8,4-4v-7.8c.5.6,1.1,1.2,1.7,1.8,1.8,1.9,3.8,3.8,6.2,5.8,2.4,2,5.1,3.9,8.3,5.7,2.4,1.3,5.1,2.4,8.2,3.1,3.1.7,6.3,1.1,9.7,1.1s4.8-.1,7.3-.3c2.6-.2,5.2-.7,7.8-1.4s5.1-1.8,7.6-3.1c1.9-1,5.1-3.7,7.2-5.6,1.2.7,2.5,1.3,3.8,1.8,6.1,2.6,12.6,3.9,19.5,3.9s13.4-1.3,19.5-3.9c6-2.6,11.4-6.2,15.9-10.7s8.1-9.8,10.7-15.9c2.6-6.1,3.9-12.6,3.9-19.5s-1.3-13.4-3.9-19.5h0ZM44.1,53.8c-.9.9-1.8,1.3-3.1,1.3h-1.9v-9h1.9c1.3,0,2.3.4,3.2,1.3.9.9,1.3,1.9,1.3,3.2s-.4,2.3-1.3,3.3h-.1ZM118.3,56.4c-.8.9-1.8,1.3-3.1,1.3h-1.9v-9h1.9c1.3,0,2.2.4,3.1,1.3s1.3,1.9,1.3,3.2-.4,2.3-1.3,3.3h0ZM148.9,85.1c-.7.2-1.3.3-2,.3s-1.5,0-2.1-.4c-1.8-.8-3.3-1.6-4.3-2.5,2.7-2.4,5.1-5.1,7-8.2,1.3-2,2.4-4.1,3.3-6.4.6,4.6,1.8,9.1,3.6,13.3h0c-2.3,1.9-4.7,3.6-5.5,3.9ZM215.6,67.5c-.9,2-1.9,3.6-3.3,5-1.4,1.4-3,2.5-4.9,3.3-1.8.8-3.9,1.2-6,1.2s-4.1-.4-6-1.2c-1.9-.8-3.5-1.9-4.9-3.3s-2.5-3-3.3-4.9c-.8-1.8-1.2-3.9-1.2-6s.4-4.1,1.2-6,1.9-3.5,3.3-4.8c1.4-1.4,3-2.4,5-3.3,1.8-.8,3.9-1.2,6-1.2s4.1.4,6,1.2,3.5,1.9,4.9,3.3,2.4,3,3.3,4.9c.8,1.8,1.2,3.9,1.2,6s-.4,4.1-1.2,6v-.2Z"/>
        <path class="cls-1" d="M71.5,64.4c1.8-4.2,2.7-8.5,2.8-12.8,0-4.3-.7-8.6-2.3-12.7-1.6-4.2-4-7.9-7.3-11.1-2.8-2.8-6-5.2-9.8-7.1-3.8-1.9-7.7-2.8-11.6-2.8H9.7v88.7h25.7v-21.1c0-.8,0-1.4.4-1.8.3-.4.8-.5,1.5,0,.7.3,1.9,1.3,3.4,2.9s3.5,4.1,5.9,7.3c2.4,3.2,5.4,7.5,9.1,12.9h27.7l-19.3-30.8c3.3-3.3,5.8-7.1,7.5-11.3v-.2ZM47,56.5c-1.6,1.7-3.6,2.5-6,2.5h-5.9v-17h5.9c2.4,0,4.4.8,6,2.5s2.5,3.6,2.5,6-.8,4.4-2.5,6Z"/>
        <path class="cls-1" d="M242.8,43.7c-2.4-5.6-5.7-10.5-9.8-14.6-4.2-4.1-9-7.4-14.6-9.8-5.6-2.4-11.6-3.6-17.9-3.6s-12.3,1.2-17.9,3.6c-5.6,2.4-10.5,5.7-14.6,9.8s-7.4,9-9.8,14.6c-2.4,5.6-3.6,11.6-3.6,17.9s1.2,12.3,3.6,17.9c.4.9.8,1.8,1.3,2.7-2.2,2-7.1,6.1-9.3,6.7-2.4.7-4.7.6-6.8-.3-2.3-1-4.1-2.1-5.4-3.2-1.3-1.2-2.5-2.3-3.4-3.2,3.9-2.7,7.2-6,9.8-10.1,2.6-4,4.3-8.6,5-13.6.7-4.8.5-9.5-.7-13.9-1.2-4.5-3.1-8.6-5.7-12.2-2.7-3.7-6-6.7-9.9-9.2-4-2.5-8.3-4.1-13.1-5h0c-1.4-.2-3.2-.2-5.3-.2h-30.9v88.7h25.7v-18.6c1.3,1.4,2.6,2.9,4,4.6s2.9,3.5,4.6,5.3,3.6,3.6,5.8,5.4,4.8,3.6,7.7,5.3c2,1.1,4.4,2,7.2,2.7,2.8.6,5.7,1,8.8,1s4.6,0,7-.3c2.4-.2,4.7-.6,7-1.3,2.3-.7,4.6-1.6,6.8-2.8,1.9-1,6.1-4.7,8.5-7,1.9,1.2,3.9,2.2,6,3.1,5.6,2.4,11.6,3.6,17.9,3.6s12.3-1.2,17.9-3.6c5.6-2.4,10.5-5.7,14.6-9.8s7.4-9,9.8-14.6c2.4-5.6,3.6-11.6,3.6-17.9s-1.2-12.3-3.6-17.9l-.3-.2ZM121.2,59.1c-1.6,1.7-3.6,2.5-5.9,2.5h-5.9v-17h5.9c2.3,0,4.3.8,5.9,2.5,1.6,1.6,2.4,3.6,2.4,6s-.8,4.4-2.4,6ZM219.2,69.1c-1,2.4-2.4,4.4-4.1,6.2-1.7,1.8-3.8,3.1-6.1,4.2-2.4,1-4.9,1.5-7.6,1.5s-5.2-.5-7.6-1.5c-2.4-1-4.4-2.4-6.2-4.2-1.8-1.8-3.1-3.8-4.2-6.2-1-2.4-1.5-4.9-1.5-7.6s.5-5.2,1.5-7.6,2.4-4.4,4.2-6.1c1.8-1.7,3.8-3.1,6.2-4.1s4.9-1.5,7.6-1.5,5.2.5,7.6,1.5c2.4,1,4.4,2.4,6.1,4.1,1.7,1.7,3.1,3.8,4.1,6.1s1.5,4.9,1.5,7.6-.5,5.2-1.5,7.6Z"/>
      </g>
    </g>
  </g>
</svg>